<svg xmlns="http://www.w3.org/2000/svg" xmlns:xlink="http://www.w3.org/1999/xlink" width="500" zoomAndPan="magnify" viewBox="0 0 375 374.999991" height="500" preserveAspectRatio="xMidYMid meet" version="1.0"><defs><g><g id="id1"/></g></defs><path fill="rgb(100%, 100%, 100%)" d="M 62.527344 92.277344 L 86.496094 50.761719 L 110.464844 92.277344 Z M 62.527344 92.277344 " fill-opacity="1" fill-rule="nonzero"/><path fill="rgb(0%, 0%, 0%)" d="M 76.46875 84.683594 L 86.496094 67.316406 L 96.523438 84.683594 Z M 76.46875 84.683594 " fill-opacity="1" fill-rule="nonzero"/><path fill="rgb(100%, 100%, 100%)" d="M 110.457031 96.277344 L 86.484375 137.792969 L 62.515625 96.277344 Z M 110.457031 96.277344 " fill-opacity="1" fill-rule="nonzero"/><path fill="rgb(0%, 0%, 0%)" d="M 96.519531 103.875 L 86.488281 121.246094 L 76.460938 103.875 Z M 96.519531 103.875 " fill-opacity="1" fill-rule="nonzero"/><g fill="rgb(100%, 100%, 100%)" fill-opacity="1"><g transform="translate(115.630184, 108.531154)"><g><path d="M 19.03125 0 L 2.9375 0 L 2.9375 -27.125 L 19.03125 -27.125 L 19.03125 -21.25 L 10.265625 -21.25 L 10.265625 -16.984375 L 18.390625 -16.984375 L 18.390625 -11.09375 L 10.265625 -11.09375 L 10.265625 -5.96875 L 19.03125 -5.96875 Z M 19.03125 0 "/></g></g></g><g fill="rgb(100%, 100%, 100%)" fill-opacity="1"><g transform="translate(136.481364, 108.531154)"><g><path d="M 15.765625 0 L 15.765625 -11.46875 C 15.765625 -12.863281 15.5625 -13.914062 15.15625 -14.625 C 14.757812 -15.34375 14.117188 -15.703125 13.234375 -15.703125 C 12.003906 -15.703125 11.117188 -15.210938 10.578125 -14.234375 C 10.035156 -13.253906 9.765625 -11.578125 9.765625 -9.203125 L 9.765625 0 L 2.5 0 L 2.5 -21.015625 L 7.984375 -21.015625 L 8.890625 -18.421875 L 9.3125 -18.421875 C 9.9375 -19.410156 10.796875 -20.148438 11.890625 -20.640625 C 12.984375 -21.140625 14.238281 -21.390625 15.65625 -21.390625 C 17.988281 -21.390625 19.800781 -20.710938 21.09375 -19.359375 C 22.382812 -18.015625 23.03125 -16.117188 23.03125 -13.671875 L 23.03125 0 Z M 15.765625 0 "/></g></g></g><g fill="rgb(100%, 100%, 100%)" fill-opacity="1"><g transform="translate(161.93316, 108.531154)"><g><path d="M 12.078125 0.375 C 8.640625 0.375 6.03125 -0.550781 4.25 -2.40625 C 2.476562 -4.269531 1.59375 -6.9375 1.59375 -10.40625 C 1.59375 -13.894531 2.550781 -16.597656 4.46875 -18.515625 C 6.382812 -20.429688 9.113281 -21.390625 12.65625 -21.390625 C 15.09375 -21.390625 17.382812 -20.859375 19.53125 -19.796875 L 17.40625 -14.4375 C 16.53125 -14.820312 15.71875 -15.128906 14.96875 -15.359375 C 14.226562 -15.585938 13.457031 -15.703125 12.65625 -15.703125 C 11.476562 -15.703125 10.566406 -15.242188 9.921875 -14.328125 C 9.285156 -13.410156 8.96875 -12.117188 8.96875 -10.453125 C 8.96875 -7.085938 10.207031 -5.40625 12.6875 -5.40625 C 14.820312 -5.40625 16.863281 -6.019531 18.8125 -7.25 L 18.8125 -1.484375 C 16.945312 -0.242188 14.703125 0.375 12.078125 0.375 Z M 12.078125 0.375 "/></g></g></g><g fill="rgb(100%, 100%, 100%)" fill-opacity="1"><g transform="translate(182.413323, 108.531154)"><g><path d="M 15.203125 -21.390625 C 15.828125 -21.390625 16.425781 -21.34375 17 -21.25 L 17.40625 -21.171875 L 16.75 -14.328125 C 16.15625 -14.472656 15.332031 -14.546875 14.28125 -14.546875 C 12.695312 -14.546875 11.546875 -14.179688 10.828125 -13.453125 C 10.117188 -12.734375 9.765625 -11.691406 9.765625 -10.328125 L 9.765625 0 L 2.5 0 L 2.5 -21.015625 L 7.90625 -21.015625 L 9.03125 -17.671875 L 9.390625 -17.671875 C 9.992188 -18.773438 10.835938 -19.671875 11.921875 -20.359375 C 13.003906 -21.046875 14.097656 -21.390625 15.203125 -21.390625 Z M 15.203125 -21.390625 "/></g></g></g><g fill="rgb(100%, 100%, 100%)" fill-opacity="1"><g transform="translate(200.24071, 108.531154)"><g><path d="M -0.03125 -21.015625 L 7.609375 -21.015625 L 11.171875 -8.96875 C 11.347656 -8.332031 11.460938 -7.570312 11.515625 -6.6875 L 11.671875 -6.6875 C 11.765625 -7.53125 11.910156 -8.273438 12.109375 -8.921875 L 15.765625 -21.015625 L 23.171875 -21.015625 L 14.859375 1.34375 C 13.796875 4.1875 12.488281 6.191406 10.9375 7.359375 C 9.382812 8.535156 7.359375 9.125 4.859375 9.125 C 3.898438 9.125 2.910156 9.019531 1.890625 8.8125 L 1.890625 3.125 C 2.546875 3.269531 3.296875 3.34375 4.140625 3.34375 C 4.785156 3.34375 5.347656 3.21875 5.828125 2.96875 C 6.304688 2.71875 6.722656 2.367188 7.078125 1.921875 C 7.441406 1.472656 7.828125 0.734375 8.234375 -0.296875 Z M -0.03125 -21.015625 "/></g></g></g><g fill="rgb(100%, 100%, 100%)" fill-opacity="1"><g transform="translate(223.410749, 108.531154)"><g><path d="M 15.125 0.375 C 14.0625 0.375 13.109375 0.195312 12.265625 -0.15625 C 11.421875 -0.507812 10.585938 -1.144531 9.765625 -2.0625 L 9.421875 -2.0625 C 9.648438 -0.582031 9.765625 0.332031 9.765625 0.6875 L 9.765625 9.125 L 2.5 9.125 L 2.5 -21.015625 L 8.40625 -21.015625 L 9.421875 -18.34375 L 9.765625 -18.34375 C 11.109375 -20.375 12.96875 -21.390625 15.34375 -21.390625 C 17.664062 -21.390625 19.488281 -20.425781 20.8125 -18.5 C 22.132812 -16.570312 22.796875 -13.925781 22.796875 -10.5625 C 22.796875 -7.164062 22.109375 -4.492188 20.734375 -2.546875 C 19.359375 -0.597656 17.488281 0.375 15.125 0.375 Z M 12.6875 -15.703125 C 11.625 -15.703125 10.878906 -15.320312 10.453125 -14.5625 C 10.023438 -13.800781 9.796875 -12.671875 9.765625 -11.171875 L 9.765625 -10.59375 C 9.765625 -8.789062 10.003906 -7.484375 10.484375 -6.671875 C 10.960938 -5.867188 11.722656 -5.46875 12.765625 -5.46875 C 13.691406 -5.46875 14.363281 -5.867188 14.78125 -6.671875 C 15.207031 -7.472656 15.421875 -8.789062 15.421875 -10.625 C 15.421875 -12.4375 15.207031 -13.734375 14.78125 -14.515625 C 14.363281 -15.304688 13.664062 -15.703125 12.6875 -15.703125 Z M 12.6875 -15.703125 "/></g></g></g><g fill="rgb(100%, 100%, 100%)" fill-opacity="1"><g transform="translate(247.842247, 108.531154)"><g><path d="M 12.796875 -5.359375 C 13.773438 -5.359375 14.945312 -5.601562 16.3125 -6.09375 L 16.3125 -0.796875 C 15.332031 -0.378906 14.398438 -0.0820312 13.515625 0.09375 C 12.628906 0.28125 11.59375 0.375 10.40625 0.375 C 7.96875 0.375 6.210938 -0.21875 5.140625 -1.40625 C 4.066406 -2.601562 3.53125 -4.441406 3.53125 -6.921875 L 3.53125 -15.59375 L 0.984375 -15.59375 L 0.984375 -18.53125 L 4.21875 -20.8125 L 6.09375 -25.234375 L 10.84375 -25.234375 L 10.84375 -21.015625 L 16 -21.015625 L 16 -15.59375 L 10.84375 -15.59375 L 10.84375 -7.40625 C 10.84375 -6.039062 11.492188 -5.359375 12.796875 -5.359375 Z M 12.796875 -5.359375 "/></g></g></g><g fill="rgb(100%, 100%, 100%)" fill-opacity="1"><g transform="translate(265.317168, 108.531154)"><g><path d="M 22.578125 -10.5625 C 22.578125 -7.125 21.648438 -4.441406 19.796875 -2.515625 C 17.953125 -0.585938 15.367188 0.375 12.046875 0.375 C 8.847656 0.375 6.304688 -0.609375 4.421875 -2.578125 C 2.535156 -4.546875 1.59375 -7.207031 1.59375 -10.5625 C 1.59375 -13.988281 2.515625 -16.648438 4.359375 -18.546875 C 6.210938 -20.441406 8.8125 -21.390625 12.15625 -21.390625 C 14.21875 -21.390625 16.039062 -20.953125 17.625 -20.078125 C 19.207031 -19.203125 20.425781 -17.941406 21.28125 -16.296875 C 22.144531 -14.660156 22.578125 -12.75 22.578125 -10.5625 Z M 8.96875 -10.5625 C 8.96875 -8.75 9.207031 -7.367188 9.6875 -6.421875 C 10.164062 -5.484375 10.972656 -5.015625 12.109375 -5.015625 C 13.242188 -5.015625 14.039062 -5.484375 14.5 -6.421875 C 14.96875 -7.367188 15.203125 -8.75 15.203125 -10.5625 C 15.203125 -12.351562 14.960938 -13.707031 14.484375 -14.625 C 14.015625 -15.539062 13.210938 -16 12.078125 -16 C 10.960938 -16 10.164062 -15.539062 9.6875 -14.625 C 9.207031 -13.71875 8.96875 -12.363281 8.96875 -10.5625 Z M 8.96875 -10.5625 "/></g></g></g></svg>